<svg xmlns="http://www.w3.org/2000/svg" width="1200" height="630" viewBox="0 0 1200 630" role="img" aria-labelledby="title desc">
  <title id="title">Mode Code</title>
  <desc id="desc">Minimal monochrome code texture for Mode Code.</desc>
  <rect width="1200" height="630" fill="#f7f7f6"/>
  <path d="M0 90H1200M0 180H1200M0 270H1200M0 360H1200M0 450H1200M0 540H1200M120 0V630M240 0V630M360 0V630M480 0V630M600 0V630M720 0V630M840 0V630M960 0V630M1080 0V630" stroke="#151514" stroke-opacity="0.05"/>
  <rect x="92" y="86" width="1016" height="458" fill="#ffffff" stroke="#d9d8d2"/>
  <text x="140" y="160" fill="#151514" font-family="Menlo, Consolas, monospace" font-size="22">build({</text>
  <text x="180" y="202" fill="#55534d" font-family="Menlo, Consolas, monospace" font-size="22">website: "clear",</text>
  <text x="180" y="244" fill="#55534d" font-family="Menlo, Consolas, monospace" font-size="22">automation: "useful",</text>
  <text x="180" y="286" fill="#55534d" font-family="Menlo, Consolas, monospace" font-size="22">ai: "practical",</text>
  <text x="140" y="328" fill="#151514" font-family="Menlo, Consolas, monospace" font-size="22">})</text>
  <text x="140" y="436" fill="#151514" font-family="Inter, Arial, sans-serif" font-size="70" font-weight="500">Mode Code</text>
  <text x="140" y="486" fill="#55534d" font-family="Inter, Arial, sans-serif" font-size="28">Software for businesses that need things to work.</text>
  <rect x="958" y="116" width="80" height="80" fill="#151514"/>
  <text x="981" y="165" fill="#ffffff" font-family="Menlo, Consolas, monospace" font-size="20">MC</text>
  <circle cx="1040" cy="478" r="4" fill="#9f8f68"/>
</svg>
